<?xml version="1.0" encoding="utf-8"?>
<!-- Generator: Adobe Illustrator 15.1.0, SVG Export Plug-In  -->
<!DOCTYPE svg PUBLIC "-//W3C//DTD SVG 1.1//EN" "http://www.w3.org/Graphics/SVG/1.1/DTD/svg11.dtd" [
	<!ENTITY ns_flows "http://ns.adobe.com/Flows/1.0/">
]>
<svg version="1.1"
	 xmlns="http://www.w3.org/2000/svg" xmlns:xlink="http://www.w3.org/1999/xlink" xmlns:a="http://ns.adobe.com/AdobeSVGViewerExtensions/3.0/"
	 x="0px" y="0px" width="588px" height="78px" viewBox="-9.96 -4.928 588 78"
	 overflow="visible" enable-background="new -9.96 -4.928 588 78" xml:space="preserve">
<defs>
</defs>
<path fill="#FFFFFF" d="M48.384,29.088c0,4.272-0.637,8.04-1.908,11.304c-1.272,3.265-3,5.989-5.184,8.172
	c-2.185,2.185-4.741,3.828-7.668,4.932c-2.928,1.104-6.048,1.656-9.36,1.656s-6.444-0.552-9.396-1.656
	c-2.952-1.104-5.521-2.747-7.704-4.932c-2.185-2.184-3.924-4.907-5.22-8.172C0.648,37.128,0,33.36,0,29.088
	c0-4.272,0.648-8.028,1.944-11.268c1.296-3.24,3.06-5.964,5.292-8.172c2.232-2.208,4.812-3.863,7.74-4.968
	C17.903,3.576,21,3.024,24.264,3.024c3.264,0,6.359,0.552,9.288,1.656c2.927,1.105,5.483,2.761,7.668,4.968
	c2.184,2.208,3.924,4.932,5.22,8.172C47.736,21.06,48.384,24.816,48.384,29.088z M9.432,29.088c0,2.736,0.335,5.22,1.008,7.452
	c0.672,2.232,1.644,4.129,2.916,5.688C14.627,43.788,16.175,45,18,45.864c1.824,0.864,3.888,1.296,6.192,1.296
	c2.256,0,4.295-0.432,6.12-1.296c1.824-0.864,3.372-2.076,4.644-3.636c1.271-1.559,2.243-3.456,2.916-5.688
	c0.671-2.232,1.008-4.716,1.008-7.452c0-2.736-0.336-5.22-1.008-7.452c-0.673-2.232-1.645-4.127-2.916-5.688
	c-1.272-1.559-2.82-2.772-4.644-3.636c-1.825-0.864-3.864-1.296-6.12-1.296c-2.304,0-4.368,0.432-6.192,1.296
	c-1.825,0.864-3.373,2.088-4.644,3.672c-1.272,1.584-2.244,3.48-2.916,5.688C9.767,23.88,9.432,26.352,9.432,29.088z"/>
<path fill="#FFFFFF" d="M91.8,35.28c0,2.88-0.373,5.521-1.116,7.92c-0.745,2.401-1.812,4.464-3.204,6.192
	c-1.393,1.728-3.132,3.073-5.22,4.032s-4.453,1.44-7.092,1.44c-1.776,0-3.409-0.216-4.896-0.648
	c-1.489-0.432-2.712-0.911-3.672-1.44v14.616h-8.712V17.64c1.775-0.479,3.96-0.936,6.552-1.368c2.592-0.432,5.328-0.648,8.208-0.648
	c2.976,0,5.64,0.457,7.992,1.368c2.352,0.913,4.356,2.221,6.012,3.924c1.656,1.704,2.927,3.769,3.816,6.192
	C91.355,29.532,91.8,32.256,91.8,35.28z M82.872,35.424c0-3.888-0.876-6.912-2.628-9.072c-1.752-2.16-4.572-3.24-8.46-3.24
	c-0.817,0-1.668,0.036-2.556,0.108c-0.889,0.072-1.764,0.229-2.628,0.468v21.528c0.768,0.529,1.788,1.021,3.06,1.476
	c1.271,0.457,2.628,0.684,4.068,0.684c3.168,0,5.483-1.08,6.948-3.24C82.139,41.976,82.872,39.072,82.872,35.424z"/>
<path fill="#FFFFFF" d="M98.711,35.424c0-3.312,0.492-6.216,1.476-8.712c0.983-2.496,2.292-4.572,3.924-6.228
	c1.631-1.656,3.503-2.904,5.616-3.744c2.111-0.839,4.271-1.26,6.48-1.26c5.184,0,9.227,1.608,12.132,4.824
	c2.904,3.216,4.356,8.017,4.356,14.4c0,0.48-0.012,1.021-0.036,1.62c-0.024,0.601-0.061,1.141-0.108,1.62h-24.84
	c0.24,3.024,1.307,5.364,3.204,7.02c1.896,1.656,4.644,2.484,8.244,2.484c2.112,0,4.043-0.191,5.796-0.576
	c1.751-0.383,3.132-0.792,4.14-1.224l1.152,7.128c-0.48,0.241-1.141,0.493-1.98,0.756c-0.841,0.265-1.8,0.504-2.88,0.72
	c-1.08,0.216-2.244,0.396-3.492,0.54c-1.249,0.144-2.52,0.216-3.816,0.216c-3.312,0-6.192-0.493-8.64-1.476
	c-2.448-0.983-4.464-2.351-6.048-4.104c-1.584-1.751-2.761-3.816-3.528-6.192C99.095,40.86,98.711,38.256,98.711,35.424z
	 M123.983,31.536c0-1.199-0.169-2.34-0.504-3.42c-0.336-1.08-0.828-2.016-1.476-2.808s-1.44-1.415-2.376-1.872
	c-0.936-0.456-2.052-0.684-3.348-0.684c-1.344,0-2.52,0.252-3.528,0.756c-1.008,0.504-1.861,1.165-2.556,1.98
	c-0.696,0.817-1.236,1.753-1.62,2.808c-0.385,1.056-0.648,2.136-0.792,3.24H123.983z"/>
<path fill="#FFFFFF" d="M141.911,17.64c1.68-0.479,3.863-0.936,6.552-1.368c2.688-0.432,5.663-0.648,8.928-0.648
	c3.071,0,5.64,0.421,7.704,1.26c2.063,0.84,3.708,2.016,4.932,3.528c1.224,1.512,2.088,3.337,2.592,5.472
	c0.504,2.136,0.756,4.477,0.756,7.02v21.168h-8.712v-19.8c0-2.016-0.133-3.732-0.396-5.148c-0.264-1.415-0.696-2.567-1.296-3.456
	c-0.601-0.888-1.417-1.536-2.448-1.944c-1.033-0.407-2.292-0.612-3.78-0.612c-1.104,0-2.257,0.072-3.456,0.216
	c-1.2,0.144-2.088,0.265-2.664,0.36v30.384h-8.712V17.64z"/>
<path fill="#FFFFFF" d="M234.43,54.072c-0.674-1.968-1.371-3.912-2.094-5.832c-0.722-1.919-1.42-3.888-2.093-5.904h-21.075
	c-0.674,2.016-1.36,3.996-2.058,5.94c-0.698,1.944-1.384,3.876-2.057,5.796h-9.434c1.87-5.328,3.645-10.248,5.323-14.76
	c1.679-4.512,3.321-8.784,4.928-12.816c1.606-4.032,3.201-7.872,4.783-11.52c1.583-3.647,3.214-7.247,4.893-10.8h8.661
	c1.68,3.553,3.312,7.153,4.896,10.8c1.584,3.648,3.18,7.488,4.788,11.52c1.609,4.032,3.265,8.305,4.97,12.816
	c1.703,4.512,3.491,9.432,5.363,14.76H234.43z M219.706,13.824c-1.104,2.545-2.365,5.641-3.78,9.288
	c-1.417,3.648-2.893,7.608-4.428,11.88h16.417c-1.537-4.271-3.024-8.255-4.464-11.952C222.01,19.344,220.761,16.272,219.706,13.824z
	"/>
<path fill="#FFFFFF" d="M246.958,35.28c0-2.783,0.432-5.388,1.296-7.812c0.864-2.423,2.1-4.523,3.708-6.3
	c1.607-1.775,3.564-3.168,5.868-4.176c2.304-1.008,4.896-1.512,7.775-1.512c3.552,0,6.912,0.648,10.08,1.944l-1.872,7.128
	c-1.008-0.432-2.148-0.792-3.42-1.08c-1.272-0.288-2.628-0.432-4.067-0.432c-3.409,0-6.001,1.069-7.776,3.204
	c-1.776,2.137-2.664,5.148-2.664,9.036c0,3.744,0.84,6.708,2.521,8.892c1.68,2.185,4.511,3.276,8.496,3.276
	c1.487,0,2.951-0.144,4.392-0.432s2.688-0.648,3.744-1.08l1.224,7.2c-0.961,0.48-2.412,0.913-4.355,1.296
	c-1.944,0.384-3.949,0.576-6.013,0.576c-3.216,0-6.012-0.493-8.388-1.476s-4.345-2.351-5.904-4.104
	c-1.56-1.751-2.725-3.839-3.491-6.264C247.342,40.741,246.958,38.112,246.958,35.28z"/>
<path fill="#FFFFFF" d="M280.94,35.28c0-2.783,0.432-5.388,1.296-7.812c0.864-2.423,2.1-4.523,3.708-6.3
	c1.607-1.775,3.564-3.168,5.868-4.176c2.304-1.008,4.896-1.512,7.775-1.512c3.552,0,6.912,0.648,10.08,1.944l-1.872,7.128
	c-1.008-0.432-2.148-0.792-3.42-1.08c-1.272-0.288-2.628-0.432-4.067-0.432c-3.409,0-6.001,1.069-7.776,3.204
	c-1.776,2.137-2.664,5.148-2.664,9.036c0,3.744,0.84,6.708,2.521,8.892c1.68,2.185,4.511,3.276,8.496,3.276
	c1.487,0,2.951-0.144,4.392-0.432s2.688-0.648,3.744-1.08l1.224,7.2c-0.961,0.48-2.412,0.913-4.355,1.296
	c-1.944,0.384-3.949,0.576-6.013,0.576c-3.216,0-6.012-0.493-8.388-1.476s-4.345-2.351-5.904-4.104
	c-1.56-1.751-2.725-3.839-3.491-6.264C281.324,40.741,280.94,38.112,280.94,35.28z"/>
<path fill="#FFFFFF" d="M350.276,35.208c0,2.977-0.432,5.688-1.296,8.136c-0.863,2.448-2.088,4.536-3.672,6.264
	s-3.492,3.072-5.724,4.032c-2.232,0.96-4.692,1.44-7.38,1.44c-2.689,0-5.137-0.48-7.345-1.44c-2.208-0.959-4.104-2.304-5.688-4.032
	s-2.82-3.816-3.708-6.264c-0.889-2.448-1.332-5.159-1.332-8.136c0-2.976,0.443-5.676,1.332-8.1c0.888-2.423,2.135-4.5,3.744-6.228
	c1.607-1.728,3.516-3.06,5.724-3.996c2.207-0.936,4.632-1.404,7.272-1.404c2.639,0,5.075,0.468,7.308,1.404s4.14,2.268,5.724,3.996
	s2.819,3.805,3.708,6.228C349.832,29.532,350.276,32.232,350.276,35.208z M341.349,35.208c0-3.744-0.805-6.708-2.412-8.892
	c-1.608-2.184-3.852-3.276-6.731-3.276s-5.125,1.093-6.732,3.276c-1.608,2.185-2.412,5.148-2.412,8.892c0,3.792,0.804,6.792,2.412,9
	c1.607,2.208,3.853,3.312,6.732,3.312s5.123-1.104,6.731-3.312C340.544,42,341.349,39,341.349,35.208z"/>
<path fill="#FFFFFF" d="M390.163,52.92c-1.681,0.432-3.864,0.876-6.552,1.332c-2.688,0.456-5.641,0.684-8.855,0.684
	c-3.024,0-5.557-0.432-7.597-1.296c-2.04-0.864-3.672-2.063-4.896-3.6c-1.225-1.535-2.101-3.372-2.628-5.508
	c-0.529-2.135-0.792-4.475-0.792-7.02V16.416h8.712v19.728c0,4.032,0.587,6.912,1.764,8.64c1.176,1.728,3.228,2.592,6.156,2.592
	c1.055,0,2.171-0.047,3.348-0.144c1.176-0.096,2.052-0.216,2.628-0.36V16.416h8.712V52.92z"/>
<path fill="#FFFFFF" d="M401.251,17.64c1.68-0.479,3.863-0.936,6.552-1.368c2.688-0.432,5.663-0.648,8.929-0.648
	c3.071,0,5.64,0.421,7.703,1.26c2.063,0.84,3.708,2.016,4.933,3.528c1.224,1.512,2.088,3.337,2.592,5.472
	c0.504,2.136,0.756,4.477,0.756,7.02v21.168h-8.712v-19.8c0-2.016-0.133-3.732-0.396-5.148c-0.265-1.415-0.696-2.567-1.297-3.456
	c-0.601-0.888-1.416-1.536-2.447-1.944c-1.033-0.407-2.293-0.612-3.78-0.612c-1.104,0-2.257,0.072-3.456,0.216
	c-1.2,0.144-2.088,0.265-2.664,0.36v30.384h-8.712V17.64z"/>
<path fill="#FFFFFF" d="M442.939,6.48l8.712-1.44v11.376h13.392v7.272h-13.392v15.336c0,3.024,0.479,5.184,1.439,6.48
	s2.593,1.944,4.896,1.944c1.584,0,2.988-0.167,4.212-0.504c1.224-0.335,2.196-0.648,2.916-0.936l1.439,6.912
	c-1.008,0.432-2.328,0.876-3.96,1.332s-3.553,0.684-5.76,0.684c-2.688,0-4.932-0.36-6.731-1.08c-1.801-0.72-3.229-1.764-4.284-3.132
	c-1.057-1.368-1.8-3.024-2.232-4.968c-0.432-1.944-0.647-4.164-0.647-6.66V6.48z"/>
<path fill="#FFFFFF" d="M483.187,5.4c0,1.632-0.528,2.928-1.584,3.888c-1.056,0.961-2.304,1.44-3.744,1.44
	c-1.488,0-2.761-0.479-3.815-1.44c-1.057-0.959-1.584-2.255-1.584-3.888c0-1.68,0.527-3,1.584-3.96C475.098,0.48,476.37,0,477.858,0
	c1.44,0,2.688,0.48,3.744,1.44C482.658,2.4,483.187,3.72,483.187,5.4z M482.251,54.072h-8.712V16.416h8.712V54.072z"/>
<path fill="#FFFFFF" d="M493.338,17.64c1.68-0.479,3.863-0.936,6.552-1.368c2.688-0.432,5.663-0.648,8.929-0.648
	c3.071,0,5.64,0.421,7.703,1.26c2.063,0.84,3.708,2.016,4.933,3.528c1.224,1.512,2.088,3.337,2.592,5.472
	c0.504,2.136,0.756,4.477,0.756,7.02v21.168h-8.712v-19.8c0-2.016-0.133-3.732-0.396-5.148c-0.265-1.415-0.696-2.567-1.297-3.456
	c-0.601-0.888-1.416-1.536-2.447-1.944c-1.033-0.407-2.293-0.612-3.78-0.612c-1.104,0-2.257,0.072-3.456,0.216
	c-1.2,0.144-2.088,0.265-2.664,0.36v30.384h-8.712V17.64z"/>
<path fill="#FFFFFF" d="M566.562,50.256c0,6-1.524,10.392-4.572,13.176c-3.049,2.783-7.717,4.176-14.004,4.176
	c-2.305,0-4.549-0.192-6.732-0.576c-2.185-0.385-4.165-0.889-5.939-1.512l1.584-7.416c1.487,0.623,3.179,1.127,5.075,1.512
	c1.896,0.384,3.948,0.576,6.156,0.576c3.504,0,6-0.72,7.488-2.16c1.487-1.44,2.231-3.576,2.231-6.408v-1.44
	c-0.863,0.432-2.004,0.864-3.42,1.296c-1.416,0.432-3.036,0.648-4.859,0.648c-2.401,0-4.597-0.384-6.588-1.152
	c-1.993-0.767-3.697-1.896-5.112-3.384c-1.416-1.487-2.521-3.348-3.312-5.58s-1.188-4.812-1.188-7.74c0-2.736,0.42-5.256,1.26-7.56
	c0.84-2.304,2.063-4.272,3.672-5.904c1.608-1.631,3.564-2.903,5.868-3.816c2.304-0.911,4.92-1.368,7.848-1.368
	c2.832,0,5.52,0.216,8.064,0.648c2.544,0.432,4.704,0.889,6.48,1.368V50.256z M542.297,34.272c0,3.697,0.804,6.396,2.412,8.1
	c1.607,1.705,3.684,2.556,6.229,2.556c1.392,0,2.699-0.191,3.924-0.576c1.224-0.383,2.22-0.839,2.987-1.368V23.472
	c-0.624-0.144-1.393-0.275-2.304-0.396c-0.912-0.119-2.064-0.18-3.456-0.18c-3.168,0-5.592,1.044-7.271,3.132
	C543.137,28.116,542.297,30.864,542.297,34.272z"/>
</svg>
