<?xml version="1.0" encoding="utf-8"?>
<!-- Generator: Adobe Illustrator 15.1.0, SVG Export Plug-In . SVG Version: 6.00 Build 0)  -->
<!DOCTYPE svg PUBLIC "-//W3C//DTD SVG 1.1//EN" "http://www.w3.org/Graphics/SVG/1.1/DTD/svg11.dtd">
<svg version="1.1" id="Layer_1" xmlns="http://www.w3.org/2000/svg" xmlns:xlink="http://www.w3.org/1999/xlink" x="0px" y="0px"
	 width="450px" height="150px" viewBox="0 0 450 150" enable-background="new 0 0 450 150" xml:space="preserve">
<g>
	<path fill="#FFFFFF" d="M7.148,45.461c0-5.418,0.74-10.062,2.221-13.932c1.48-3.869,3.5-7.032,6.057-9.489
		c2.557-2.456,5.578-4.257,9.061-5.401s7.193-1.716,11.13-1.716c8.917,0,15.588,2.625,20.014,7.874
		c4.425,5.25,6.638,12.519,6.638,21.806c0,5.419-0.741,10.062-2.221,13.932c-1.481,3.87-3.5,7.033-6.057,9.489
		c-2.558,2.457-5.569,4.258-9.035,5.401c-3.466,1.144-7.185,1.716-11.155,1.716c-8.884,0-15.546-2.625-19.988-7.874
		C9.37,62.017,7.148,54.748,7.148,45.461z M47.782,45.713c0-7.874-0.951-13.914-2.852-18.121c-1.902-4.206-5.41-6.309-10.524-6.309
		c-4.308,0-7.504,1.775-9.59,5.326c-2.087,3.55-3.13,9.447-3.13,17.691c0,7.841,0.942,13.873,2.827,18.096
		c1.884,4.224,5.401,6.335,10.55,6.335c4.307,0,7.503-1.783,9.59-5.351C46.738,59.813,47.782,53.924,47.782,45.713z"/>
	<path fill="#FFFFFF" d="M103.659,93.11v5.805H70.95V93.11l6.007-1.01c0.84-0.135,1.48-0.454,1.918-0.959
		c0.437-0.505,0.656-1.178,0.656-2.019V27.896c0-0.841-0.202-1.531-0.606-2.07c-0.404-0.537-0.993-0.874-1.767-1.009l-6.865-1.11
		v-5.805c2.961-0.808,6.133-1.464,9.515-1.969c3.382-0.504,6.553-0.773,9.515-0.808l2.07,1.969l0.858,5.501
		c1.918-2.221,4.273-4.054,7.067-5.501c2.792-1.446,6.158-2.17,10.095-2.17c3.129,0,6.048,0.539,8.757,1.615
		c2.708,1.077,5.039,2.726,6.991,4.947c1.951,2.221,3.49,5.073,4.618,8.555c1.127,3.483,1.691,7.597,1.691,12.342
		c0,5.148-0.69,9.759-2.069,13.83c-1.381,4.072-3.356,7.496-5.931,10.272c-2.574,2.776-5.721,4.896-9.439,6.359
		c-3.719,1.464-7.9,2.196-12.543,2.196c-1.312,0-2.726-0.085-4.24-0.253c-1.514-0.168-2.995-0.438-4.442-0.808v15.144
		c0,0.874,0.235,1.564,0.707,2.069c0.471,0.505,1.127,0.808,1.968,0.908L103.659,93.11z M101.64,68.882
		c4.711,0,8.488-1.758,11.332-5.274c2.843-3.517,4.315-9.684,4.417-18.5c0.067-7.369-1.009-12.821-3.23-16.354
		c-2.221-3.533-5.67-5.3-10.348-5.3c-2.322,0-4.425,0.362-6.31,1.085c-1.885,0.725-3.45,1.574-4.694,2.55v39.774
		c1.144,0.674,2.474,1.179,3.988,1.515C98.308,68.714,99.923,68.882,101.64,68.882z"/>
	<path fill="#FFFFFF" d="M190.728,61.311c-1.346,4.207-4.038,7.563-8.076,10.069c-4.038,2.507-8.984,3.761-14.84,3.761
		c-4.409,0-8.253-0.724-11.534-2.17c-3.28-1.447-5.99-3.458-8.126-6.032c-2.138-2.574-3.735-5.67-4.796-9.288
		c-1.06-3.616-1.59-7.597-1.59-11.938c0-9.758,2.474-17.329,7.42-22.714c4.947-5.384,11.643-8.076,20.09-8.076
		c6.831,0,12.165,1.75,16.001,5.25c3.836,3.5,5.754,8.346,5.754,14.537c0,1.044-0.059,2.255-0.177,3.635s-0.295,2.625-0.529,3.735
		h-34.728c0,0.135,0,0.286,0,0.454c0,0.169,0,0.337,0,0.505c0,8.548,1.421,14.571,4.265,18.07c2.844,3.5,6.755,5.25,11.736,5.25
		c3.129,0,6.073-0.648,8.833-1.943c2.759-1.296,4.963-3.104,6.612-5.427L190.728,61.311z M167.812,21.232
		c-3.163,0-5.779,1.161-7.849,3.482c-2.07,2.322-3.407,6.176-4.014,11.56h22.261c0.033-0.37,0.058-0.749,0.075-1.136
		c0.017-0.387,0.025-0.799,0.025-1.237c0-3.701-0.9-6.738-2.7-9.11C173.81,22.418,171.21,21.232,167.812,21.232z"/>
	<path fill="#FFFFFF" d="M230.097,68.074v5.805h-29.226v-5.805l6.007-1.01c0.841-0.134,1.48-0.462,1.918-0.984
		c0.438-0.521,0.656-1.202,0.656-2.044V27.845c0-0.841-0.21-1.531-0.631-2.069s-1.035-0.875-1.843-1.01l-6.764-1.06v-5.805
		c3.029-0.841,6.226-1.506,9.591-1.994c3.364-0.488,6.512-0.749,9.439-0.783l2.069,1.969l0.808,5.957
		c2.691-2.827,5.72-4.846,9.086-6.058c3.364-1.211,6.897-1.817,10.6-1.817c6.695,0,11.271,1.918,13.729,5.754
		c2.457,3.836,3.686,9.238,3.686,16.203v26.904c0,0.842,0.219,1.522,0.656,2.044c0.436,0.522,1.076,0.851,1.918,0.984l6.006,0.959
		v5.855h-29.225v-5.805l4.795-1.01c0.773-0.202,1.396-0.53,1.867-0.984s0.707-1.136,0.707-2.044V39.151
		c0-5.282-0.74-9.169-2.221-11.66c-1.482-2.49-4.174-3.735-8.077-3.735c-2.221,0-4.45,0.337-6.688,1.01
		c-2.238,0.674-4.315,1.683-6.233,3.028v36.242c0,0.842,0.219,1.506,0.656,1.994c0.437,0.487,1.06,0.832,1.867,1.034L230.097,68.074
		z"/>
</g>
<g>
	<path fill="#FFFFFF" d="M137.295,124.118v3.016h-14.089v-3.016l3.328-0.806c0.381-0.087,0.693-0.234,0.936-0.442
		s0.424-0.502,0.547-0.884l12.191-35.589h6.811l12.582,35.589c0.121,0.382,0.305,0.672,0.547,0.871s0.555,0.351,0.936,0.455
		l3.068,0.806v3.016h-16.742v-3.016l5.068-0.91l-2.781-8.293h-14.818l-2.65,8.293L137.295,124.118z M148.5,111.302l-6.395-19.029
		l-6.084,19.029H148.5z"/>
	<path fill="#FFFFFF" d="M165.997,112.68c0-2.392,0.334-4.571,1.001-6.538s1.625-3.64,2.872-5.018
		c1.248-1.378,2.786-2.447,4.615-3.21c1.828-0.763,3.886-1.145,6.174-1.145c1.716,0,3.436,0.191,5.16,0.572
		c1.725,0.382,3.133,0.857,4.225,1.43c0.104,1.491,0.1,3.046-0.013,4.666c-0.113,1.621-0.3,3.142-0.56,4.562h-3.405l-1.222-4.627
		c-0.139-0.537-0.286-0.966-0.442-1.287c-0.155-0.32-0.381-0.61-0.676-0.871c-0.381-0.328-0.88-0.598-1.495-0.806
		s-1.295-0.312-2.04-0.312c-2.062,0-3.7,0.919-4.913,2.756c-1.214,1.837-1.82,4.705-1.82,8.604c0,3.935,0.676,6.885,2.027,8.852
		c1.353,1.968,3.345,2.951,5.979,2.951c1.595,0,3.007-0.304,4.237-0.91s2.219-1.291,2.964-2.054l1.716,1.481
		c-0.763,1.785-2.102,3.232-4.017,4.342c-1.915,1.108-4.242,1.664-6.979,1.664c-2.236,0-4.199-0.387-5.889-1.157
		c-1.689-0.771-3.085-1.824-4.186-3.158c-1.101-1.335-1.928-2.929-2.482-4.784C166.274,116.831,165.997,114.829,165.997,112.68z"/>
	<path fill="#FFFFFF" d="M195.424,112.68c0-2.392,0.334-4.571,1.001-6.538s1.625-3.64,2.872-5.018
		c1.248-1.378,2.786-2.447,4.615-3.21c1.828-0.763,3.886-1.145,6.174-1.145c1.716,0,3.436,0.191,5.16,0.572
		c1.725,0.382,3.133,0.857,4.225,1.43c0.104,1.491,0.1,3.046-0.013,4.666c-0.113,1.621-0.3,3.142-0.56,4.562h-3.405l-1.222-4.627
		c-0.139-0.537-0.286-0.966-0.442-1.287c-0.155-0.32-0.381-0.61-0.676-0.871c-0.381-0.328-0.88-0.598-1.495-0.806
		s-1.295-0.312-2.04-0.312c-2.062,0-3.7,0.919-4.913,2.756c-1.214,1.837-1.82,4.705-1.82,8.604c0,3.935,0.676,6.885,2.027,8.852
		c1.353,1.968,3.345,2.951,5.979,2.951c1.595,0,3.007-0.304,4.237-0.91s2.219-1.291,2.964-2.054l1.716,1.481
		c-0.763,1.785-2.102,3.232-4.017,4.342c-1.915,1.108-4.242,1.664-6.979,1.664c-2.236,0-4.199-0.387-5.889-1.157
		c-1.689-0.771-3.085-1.824-4.186-3.158c-1.101-1.335-1.928-2.929-2.482-4.784C195.702,116.831,195.424,114.829,195.424,112.68z"/>
	<path fill="#FFFFFF" d="M224.904,112.498c0-2.79,0.381-5.182,1.145-7.176c0.762-1.992,1.802-3.622,3.119-4.887
		s2.873-2.192,4.666-2.782c1.794-0.589,3.706-0.884,5.733-0.884c4.592,0,8.027,1.353,10.307,4.056
		c2.279,2.704,3.42,6.447,3.42,11.23c0,2.791-0.383,5.183-1.145,7.175c-0.764,1.993-1.803,3.623-3.119,4.888
		c-1.318,1.266-2.869,2.192-4.654,2.781c-1.785,0.59-3.699,0.885-5.744,0.885c-4.576,0-8.007-1.353-10.295-4.056
		C226.048,121.024,224.904,117.281,224.904,112.498z M245.832,112.628c0-4.056-0.49-7.166-1.469-9.333
		c-0.98-2.166-2.787-3.249-5.422-3.249c-2.219,0-3.864,0.914-4.939,2.742c-1.074,1.829-1.611,4.866-1.611,9.111
		c0,4.039,0.485,7.146,1.456,9.32c0.97,2.175,2.782,3.263,5.432,3.263c2.219,0,3.865-0.919,4.939-2.756
		S245.832,116.856,245.832,112.628z"/>
	<path fill="#FFFFFF" d="M285.58,127.602c-1.422,0-2.561-0.329-3.418-0.987c-0.857-0.659-1.479-1.561-1.859-2.704
		c-1.127,1.161-2.426,2.089-3.898,2.781c-1.475,0.693-3.25,1.04-5.33,1.04c-3.189,0-5.533-0.875-7.031-2.625
		c-1.5-1.751-2.25-4.42-2.25-8.007v-13.727c0-0.433-0.107-0.788-0.324-1.066c-0.217-0.276-0.543-0.45-0.975-0.52l-3.068-0.624
		v-2.989c1.561-0.416,3.268-0.729,5.121-0.936c1.855-0.208,3.562-0.321,5.121-0.339l0.963,0.937v18.197
		c0,2.669,0.377,4.584,1.131,5.745s2.102,1.742,4.043,1.742c1.092,0,2.148-0.169,3.17-0.507c1.023-0.338,1.994-0.854,2.912-1.547
		v-18.12c0-0.433-0.107-0.788-0.324-1.065s-0.533-0.45-0.949-0.521l-3.588-0.649v-2.989c0.797-0.19,1.654-0.364,2.574-0.521
		c0.918-0.156,1.85-0.286,2.795-0.39c0.943-0.104,1.875-0.182,2.795-0.234c0.918-0.052,1.775-0.078,2.572-0.078l0.963,0.937v24.047
		c0,0.589,0.133,1.001,0.402,1.234c0.27,0.234,0.619,0.368,1.053,0.403l2.834,0.286v2.808c-0.59,0.208-1.412,0.425-2.471,0.649
		C287.486,127.489,286.498,127.602,285.58,127.602z"/>
	<path fill="#FFFFFF" d="M310.119,124.145v2.989h-15.051v-2.989l3.094-0.521c0.432-0.068,0.762-0.238,0.986-0.507
		c0.227-0.269,0.34-0.619,0.34-1.053v-18.64c0-0.433-0.109-0.788-0.326-1.065s-0.533-0.451-0.949-0.521l-3.482-0.546v-2.989
		c1.559-0.433,3.205-0.775,4.939-1.027c1.732-0.251,3.354-0.385,4.861-0.402l1.064,1.014l0.416,3.067
		c1.387-1.456,2.947-2.495,4.68-3.119s3.553-0.937,5.459-0.937c3.449,0,5.807,0.988,7.072,2.964
		c1.264,1.976,1.896,4.758,1.896,8.345v13.856c0,0.434,0.113,0.784,0.338,1.053c0.227,0.269,0.555,0.438,0.988,0.507l3.094,0.494
		v3.016h-15.051v-2.989l2.469-0.521c0.398-0.104,0.719-0.272,0.961-0.507c0.244-0.233,0.365-0.585,0.365-1.053v-12.816
		c0-2.721-0.381-4.723-1.145-6.005c-0.762-1.282-2.148-1.924-4.158-1.924c-1.145,0-2.293,0.174-3.445,0.52
		c-1.152,0.348-2.223,0.867-3.211,1.561v18.665c0,0.434,0.113,0.775,0.338,1.027c0.225,0.251,0.547,0.429,0.963,0.532
		L310.119,124.145z"/>
	<path fill="#FFFFFF" d="M336.715,119.309v-17.573l-4.342-0.624V98.33l3.275-0.546c0.467-0.069,0.822-0.222,1.066-0.455
		c0.242-0.234,0.424-0.567,0.545-1.001l2.209-7.852h3.875l0.182,9.1h9.176v3.978h-9.125v15.831c0,2.167,0.352,3.627,1.055,4.381
		c0.701,0.754,1.684,1.131,2.949,1.131c0.971,0,1.898-0.173,2.781-0.521c0.885-0.346,1.664-0.866,2.34-1.56l1.689,1.664
		c-0.814,1.716-2.07,3.007-3.768,3.873c-1.699,0.867-3.605,1.3-5.721,1.3c-1.16,0-2.244-0.13-3.25-0.39
		c-1.004-0.26-1.871-0.702-2.6-1.326c-0.727-0.623-1.299-1.477-1.715-2.561C336.922,122.294,336.715,120.938,336.715,119.309z"/>
	<path fill="#FFFFFF" d="M368.637,97.836v24.202c0,0.451,0.117,0.811,0.352,1.079s0.566,0.438,1,0.507l3.068,0.494v3.016h-15.676
		v-3.016l3.066-0.494c0.434-0.068,0.768-0.238,1.002-0.507s0.352-0.619,0.352-1.053v-18.64c0-0.433-0.109-0.788-0.326-1.065
		s-0.533-0.451-0.949-0.521l-3.482-0.546v-2.989c1.611-0.468,3.383-0.814,5.316-1.04c1.932-0.225,3.703-0.347,5.316-0.364
		L368.637,97.836z M368.924,88.789c0,1.23-0.391,2.219-1.17,2.964c-0.781,0.745-1.803,1.117-3.068,1.117
		c-1.301,0-2.34-0.372-3.119-1.117c-0.781-0.745-1.17-1.733-1.17-2.964c0-1.196,0.389-2.166,1.17-2.912
		c0.779-0.744,1.818-1.117,3.119-1.117c1.266,0,2.287,0.373,3.068,1.117C368.533,86.623,368.924,87.593,368.924,88.789z"/>
	<path fill="#FFFFFF" d="M392.137,124.145v2.989h-15.051v-2.989l3.094-0.521c0.432-0.068,0.762-0.238,0.986-0.507
		c0.227-0.269,0.34-0.619,0.34-1.053v-18.64c0-0.433-0.109-0.788-0.326-1.065s-0.533-0.451-0.949-0.521l-3.482-0.546v-2.989
		c1.559-0.433,3.205-0.775,4.939-1.027c1.732-0.251,3.354-0.385,4.861-0.402l1.064,1.014l0.416,3.067
		c1.387-1.456,2.947-2.495,4.68-3.119s3.553-0.937,5.459-0.937c3.449,0,5.807,0.988,7.072,2.964
		c1.264,1.976,1.896,4.758,1.896,8.345v13.856c0,0.434,0.113,0.784,0.338,1.053c0.227,0.269,0.555,0.438,0.988,0.507l3.094,0.494
		v3.016h-15.051v-2.989l2.469-0.521c0.398-0.104,0.719-0.272,0.961-0.507c0.244-0.233,0.365-0.585,0.365-1.053v-12.816
		c0-2.721-0.381-4.723-1.145-6.005c-0.762-1.282-2.148-1.924-4.158-1.924c-1.145,0-2.293,0.174-3.445,0.52
		c-1.152,0.348-2.223,0.867-3.211,1.561v18.665c0,0.434,0.113,0.775,0.338,1.027c0.225,0.251,0.547,0.429,0.963,0.532
		L392.137,124.145z"/>
	<path fill="#FFFFFF" d="M444.547,130.045c0,1.733-0.408,3.311-1.223,4.731s-1.959,2.626-3.432,3.614
		c-1.473,0.987-3.246,1.75-5.316,2.287s-4.346,0.806-6.824,0.806c-4.314,0-7.512-0.763-9.592-2.287
		c-2.08-1.525-3.121-3.492-3.121-5.901c0-1.751,0.49-3.185,1.471-4.303c0.979-1.117,2.256-2.015,3.834-2.69
		c-0.936-0.45-1.639-1.057-2.105-1.819c-0.469-0.763-0.703-1.655-0.703-2.678c0-1.387,0.369-2.521,1.105-3.405
		c0.736-0.885,1.65-1.595,2.742-2.132c-1.768-0.797-3.102-1.95-4.004-3.458c-0.9-1.508-1.352-3.284-1.352-5.329
		c0-1.768,0.32-3.323,0.963-4.666c0.641-1.344,1.529-2.461,2.664-3.354s2.5-1.564,4.094-2.016c1.596-0.45,3.336-0.676,5.227-0.676
		c1.854,0,3.521,0.226,5.004,0.676c1.482,0.451,2.734,1.102,3.756,1.95c0.764-0.832,1.564-1.486,2.406-1.963
		c0.84-0.477,1.693-0.715,2.561-0.715c0.449,0,0.93,0.052,1.441,0.156c0.512,0.104,0.975,0.208,1.391,0.312v4.939h-5.693
		c0.312,0.642,0.551,1.348,0.715,2.119c0.166,0.771,0.248,1.599,0.248,2.482c0,3.224-1.105,5.823-3.314,7.799
		c-2.211,1.976-5.369,2.964-9.477,2.964c-0.744,0-1.459-0.035-2.145-0.104c-0.684-0.068-1.33-0.164-1.936-0.285
		c-0.383,0.347-0.676,0.736-0.885,1.169c-0.207,0.434-0.312,0.91-0.312,1.431c0,1.022,0.447,1.737,1.34,2.145s2.369,0.61,4.432,0.61
		h6.006c3.293,0,5.787,0.65,7.486,1.95S444.547,127.584,444.547,130.045z M428.947,138.026c2.617,0,4.732-0.555,6.344-1.664
		s2.418-2.772,2.418-4.991c0-1.317-0.369-2.313-1.105-2.989s-2.127-1.014-4.172-1.014h-6.238c-0.521,0-1.016-0.014-1.482-0.039
		c-0.469-0.026-0.91-0.074-1.326-0.144c-0.502,0.606-0.918,1.317-1.248,2.132c-0.328,0.814-0.494,1.759-0.494,2.834
		c0,1.681,0.529,3.08,1.586,4.198S426.193,138.026,428.947,138.026z M422.994,106.935c0,2.461,0.455,4.307,1.365,5.537
		s2.344,1.846,4.303,1.846c1.803,0,3.137-0.58,4.004-1.741c0.865-1.161,1.299-2.981,1.299-5.46c0-2.548-0.445-4.394-1.338-5.537
		s-2.293-1.716-4.199-1.716c-1.594,0-2.898,0.503-3.912,1.508C423.502,102.377,422.994,104.23,422.994,106.935z"/>
</g>
</svg>
